<?xml version="1.0" encoding="UTF-8" standalone="no"?>
<svg
   xmlns:dc="http://purl.org/dc/elements/1.1/"
   xmlns:cc="http://creativecommons.org/ns#"
   xmlns:rdf="http://www.w3.org/1999/02/22-rdf-syntax-ns#"
   xmlns:svg="http://www.w3.org/2000/svg"
   xmlns="http://www.w3.org/2000/svg"
   xmlns:xlink="http://www.w3.org/1999/xlink"
   id="svg17"
   version="1.1"
   viewBox="0 0 13 22"
   height="22px"
   width="13px">
  <metadata
     id="metadata21">
    <rdf:RDF>
      <cc:Work
         rdf:about="">
        <dc:format>image/svg+xml</dc:format>
        <dc:type
           rdf:resource="http://purl.org/dc/dcmitype/StillImage" />
        <dc:title>arrowLeft</dc:title>
      </cc:Work>
    </rdf:RDF>
  </metadata>
  <!-- Generator: Sketch 48.2 (47327) - http://www.bohemiancoding.com/sketch -->
  <title
     id="title2">arrowLeft</title>
  <desc
     id="desc4">Created with Sketch.</desc>
  <defs
     id="defs7">
    <path
       id="path-1"
       d="M10.3306154,0.9855 L0.966807692,9.97546154 C0.439269231,10.4811923 0.439269231,11.3254615 0.966807692,11.8332692 L10.3306154,20.8211538 C10.9048846,21.3725769 11.8114615,21.3725769 12.3857308,20.8211538 C12.9932308,20.2375385 12.9932308,19.2655385 12.3857308,18.6808846 L4.54326923,11.1520385 C4.401,11.016 4.401,10.7906538 4.54326923,10.6546154 L12.3857308,3.12576923 C12.9932308,2.54215385 12.9932308,1.57015385 12.3857308,0.9855 C12.0980769,0.711346154 11.7283846,0.573230769 11.3586923,0.573230769 C10.9879615,0.573230769 10.6182692,0.711346154 10.3306154,0.9855 Z" />
  </defs>
  <g
     transform="translate(-8.000000, -31.000000)"
     fill-rule="evenodd"
     fill="none"
     stroke-width="1"
     stroke="none"
     id="UI-V2---Policy-Detail---Life-Insurance">
    <rect
       id="Bounds"
       x="0"
       y="20"
       width="38"
       height="44"
       style="stroke:none" />
    <g
       id="Icon"
       transform="translate(8,31)"
       style="stroke:none;fill:#2f9ae1;fill-opacity:1">
      <mask
         id="mask-2"
         fill="white">
        <use
           xlink:href="#path-1"
           id="use10"
           x="0"
           y="0"
           width="100%"
           height="100%" />
      </mask>
      <use
         id="Back"
         xlink:href="#path-1"
         style="fill:#2f9ae1;stroke:none;fill-opacity:1"
         x="0"
         y="0"
         width="100%"
         height="100%" />
    </g>
  </g>
</svg>
