<?xml version="1.0" encoding="UTF-8" standalone="no"?>
<svg
   xmlns:dc="http://purl.org/dc/elements/1.1/"
   xmlns:cc="http://creativecommons.org/ns#"
   xmlns:rdf="http://www.w3.org/1999/02/22-rdf-syntax-ns#"
   xmlns:svg="http://www.w3.org/2000/svg"
   xmlns="http://www.w3.org/2000/svg"
   id="svg2126"
   version="1.1"
   viewBox="0 0 4.7748299 6.6034699"
   height="6.6034698mm"
   width="4.7748299mm">
  <defs
     id="defs2120" />
  <metadata
     id="metadata2123">
    <rdf:RDF>
      <cc:Work
         rdf:about="">
        <dc:format>image/svg+xml</dc:format>
        <dc:type
           rdf:resource="http://purl.org/dc/dcmitype/StillImage" />
        <dc:title></dc:title>
      </cc:Work>
    </rdf:RDF>
  </metadata>
  <g
     transform="translate(424.47325,51.819644)"
     id="layer1">
    <path
       id="path5067"
       d="m -424.35134,-45.338084 -0.12191,-0.12191 v -3.05791 -3.05792 l 0.12191,-0.12191 0.12191,-0.12191 h 1.40207 1.40207 l 0.6221,0.65774 0.62209,0.65775 0.24132,0.32712 0.24136,0.32711 v 2.15723 2.15724 l -0.15966,0.15964 -0.15964,0.15964 h -2.10586 -2.10586 z m 3.43381,-1.09719 v -0.10159 h -1.47308 -1.47308 v 0.10159 0.10159 h 1.47308 1.47308 z m -0.60954,-1.06671 v -0.15239 h -1.16832 -1.1683 v 0.15239 0.15238 h 1.1683 1.16832 z m 1.11749,-1.11752 v -0.15238 h -1.72706 -1.72706 v 0.15238 0.15239 h 1.72706 1.72706 z m -1.93024,-1.11751 v -0.15238 h -0.76194 -0.76193 v 0.15238 0.15239 h 0.76193 0.76194 z m 2.13342,-0.11341 v -0.0626 l -0.57405,-0.62313 -0.57408,-0.62313 -0.0863,-0.0339 -0.0864,-0.0339 v 0.65188 0.65188 l 0.0677,0.0677 0.0677,0.0677 h 0.59261 0.59262 z"
       style="fill:#3498db;fill-opacity:1;stroke-width:1.00000012" />
  </g>
</svg>
