<?xml version="1.0" encoding="UTF-8"?>
<svg width="24px" height="24px" viewBox="0 0 24 24" version="1.1" xmlns="http://www.w3.org/2000/svg" xmlns:xlink="http://www.w3.org/1999/xlink">
    <!-- Generator: Sketch 49 (51002) - http://www.bohemiancoding.com/sketch -->
    <title>icBrockerMessages</title>
    <desc>Created with Sketch.</desc>
    <defs></defs>
    <g id="Symbols" stroke="none" stroke-width="1" fill="none" fill-rule="evenodd">
        <g id="icBrockerMessages" fill="#3498DB">
            <path d="M18.1416,13.0584 C17.1152,13.0584 16.2832,12.2264 16.2832,11.2 C16.2832,10.1736 17.1152,9.3416 18.1416,9.3416 C19.1676,9.3416 20,10.1736 20,11.2 C20,12.2264 19.1676,13.0584 18.1416,13.0584 M12.036,13.0584 C11.0096,13.0584 10.1776,12.2264 10.1776,11.2 C10.1776,10.1736 11.0096,9.3416 12.036,9.3416 C13.0624,9.3416 13.894,10.1736 13.894,11.2 C13.894,12.2264 13.0624,13.0584 12.036,13.0584 M5.858,9.3416 C6.8844,9.3416 7.7164,10.1736 7.7164,11.2 C7.7164,12.2264 6.8844,13.0584 5.858,13.0584 C4.832,13.0584 4,12.2264 4,11.2 C4,10.1736 4.832,9.3416 5.858,9.3416 M11.8,2 C5.2828,2 0,6.1188 0,11.2 C0,13.9832 1.5868,16.4752 4.0916,18.1624 L2,22.5112 L10.1284,20.3064 C10.6748,20.3668 11.2324,20.4 11.8,20.4 C18.3168,20.4 23.6,16.2812 23.6,11.2 C23.6,6.1188 18.3168,2 11.8,2"></path>
        </g>
    </g>
</svg>