<?xml version="1.0" encoding="UTF-8"?>
<svg width="23px" height="23px" viewBox="0 0 23 23" version="1.1" xmlns="http://www.w3.org/2000/svg" xmlns:xlink="http://www.w3.org/1999/xlink">
    <!-- Generator: Sketch 48.2 (47327) - http://www.bohemiancoding.com/sketch -->
    <title>icMyBrockerAppMenu</title>
    <desc>Created with Sketch.</desc>
    <defs></defs>
    <g id="Artboard" stroke="none" stroke-width="1" fill="none" fill-rule="evenodd" transform="translate(-577.000000, -313.000000)">
        <g id="icMyBrockerAppMenu" transform="translate(573.000000, 311.000000)" fill="#AAC2D2">
            <path d="M5.44082759,23.5517241 C5.88468966,21.0251034 8.68055172,18.441931 12.1026207,17.4816552 C12.1357241,17.5042759 12.1702069,17.5233103 12.2033103,17.5453793 C12.2675862,17.5875862 12.3321379,17.6286897 12.398069,17.6684138 C12.4449655,17.6965517 12.4918621,17.7246897 12.5390345,17.7514483 C12.6157241,17.7947586 12.6935172,17.8358621 12.7715862,17.8758621 C12.8055172,17.8932414 12.8388966,17.912 12.8731034,17.9285517 C12.9815172,17.9812414 13.0913103,18.0289655 13.2027586,18.0747586 C13.2430345,18.0913103 13.2841379,18.1067586 13.3246897,18.1222069 C13.4066207,18.1536552 13.4893793,18.1831724 13.5729655,18.2110345 C13.6121379,18.224 13.6518621,18.2372414 13.6913103,18.2493793 C13.8102069,18.286069 13.9296552,18.3197241 14.0513103,18.3484138 C14.0571034,18.3497931 14.0634483,18.3506207 14.0692414,18.352 C14.1870345,18.3793103 14.3062069,18.4016552 14.425931,18.4212414 C14.4631724,18.4273103 14.5009655,18.4322759 14.5384828,18.4377931 C14.6308966,18.4510345 14.7246897,18.4617931 14.8187586,18.470069 C14.856,18.4736552 14.8935172,18.4772414 14.9307586,18.4797241 C15.0576552,18.4885517 15.1853793,18.4946207 15.3144828,18.4946207 C15.4435862,18.4946207 15.5713103,18.4885517 15.6982069,18.4797241 C15.7354483,18.4772414 15.7729655,18.4736552 15.8102069,18.470069 C15.9042759,18.4617931 15.9977931,18.4510345 16.0904828,18.4377931 C16.128,18.4322759 16.1657931,18.4273103 16.2030345,18.4212414 C16.3227586,18.4016552 16.441931,18.3793103 16.5597241,18.352 C16.5655172,18.3506207 16.5718621,18.3497931 16.5776552,18.3484138 C16.6993103,18.3197241 16.8187586,18.286069 16.9376552,18.2493793 C16.9771034,18.2372414 17.0168276,18.224 17.056,18.2110345 C17.1395862,18.1831724 17.2223448,18.1536552 17.3042759,18.1222069 C17.3448276,18.1067586 17.385931,18.0913103 17.4262069,18.0747586 C17.5376552,18.0289655 17.6474483,17.9812414 17.7558621,17.9285517 C17.790069,17.912 17.8234483,17.8929655 17.8573793,17.8758621 C17.9357241,17.8358621 18.0132414,17.7947586 18.089931,17.7514483 C18.1371034,17.7246897 18.184,17.6965517 18.2308966,17.6684138 C18.2968276,17.6286897 18.3613793,17.5875862 18.4256552,17.5453793 C18.4587586,17.5233103 18.4932414,17.5042759 18.5263448,17.4816552 C21.9484138,18.441931 24.7442759,21.0251034 25.1881379,23.5517241 L5.44082759,23.5517241 Z M10.4217931,11.3161379 C10.4217931,8.11889655 12.6165517,5.51724138 15.3144828,5.51724138 C18.0124138,5.51724138 20.2071724,8.11889655 20.2071724,11.3161379 C20.2071724,11.8913103 20.134069,12.4457931 20.0016552,12.9710345 C19.2046897,13.2998621 18.1782069,13.5484138 16.8744828,13.6102069 C16.606069,13.0386207 15.9757241,12.6364138 15.2427586,12.6364138 C14.2667586,12.6364138 13.4725517,13.3497931 13.4725517,14.2262069 C13.4725517,15.1031724 14.2667586,15.8165517 15.2427586,15.8165517 C15.9089655,15.8165517 16.4904828,15.4838621 16.792,14.993931 C17.7528276,14.9591724 18.5864828,14.8358621 19.3092414,14.6529655 C18.969931,15.2226207 18.5486897,15.7183448 18.062069,16.1111724 L18.0135172,16.1486897 C17.9382069,16.2077241 17.8598621,16.2612414 17.7817931,16.3158621 C17.6902069,16.3793103 17.5969655,16.4391724 17.5028966,16.4957241 C17.4350345,16.5357241 17.3671724,16.576 17.297931,16.6126897 C17.2375172,16.6446897 17.176,16.6744828 17.1142069,16.7037241 C17.0388966,16.7393103 16.9624828,16.7721379 16.8849655,16.8033103 C16.8303448,16.8253793 16.7762759,16.8485517 16.7211034,16.8684138 C16.5944828,16.913931 16.4656552,16.9533793 16.3346207,16.9864828 C16.2924138,16.9972414 16.2496552,17.0046897 16.2068966,17.014069 C16.102069,17.0372414 15.9966897,17.0565517 15.889931,17.0717241 C15.8452414,17.0777931 15.8005517,17.0841379 15.7558621,17.0888276 C15.609931,17.1042759 15.4634483,17.1153103 15.3144828,17.1153103 C15.1655172,17.1153103 15.0190345,17.1042759 14.8731034,17.0888276 C14.8284138,17.0841379 14.7837241,17.0777931 14.7390345,17.0717241 C14.6322759,17.0565517 14.5268966,17.0372414 14.422069,17.014069 C14.3793103,17.0046897 14.3365517,16.9972414 14.2943448,16.9864828 C14.1633103,16.9533793 14.0344828,16.913931 13.9078621,16.8684138 C13.8526897,16.8485517 13.7986207,16.8253793 13.744,16.8033103 C13.6664828,16.7721379 13.590069,16.7393103 13.5147586,16.7037241 C13.4529655,16.6744828 13.3914483,16.6446897 13.3310345,16.6126897 C13.2617931,16.576 13.1936552,16.5357241 13.126069,16.4957241 C13.032,16.4391724 12.9387586,16.3793103 12.8471724,16.3158621 C12.7691034,16.2612414 12.6907586,16.2077241 12.6154483,16.1486897 L12.5668966,16.1111724 C11.2733793,15.0664828 10.4217931,13.3073103 10.4217931,11.3161379 Z M19.7227586,16.4165517 C20.3326897,15.726069 20.8187586,14.8932414 21.1417931,13.9663448 C21.9133793,13.5638621 22.4777931,13.0976552 22.8794483,12.6637241 C23.4667586,12.0292414 23.854069,11.2924138 23.8215172,10.8711724 C23.4328276,5.8137931 19.8030345,2 15.3787586,2 C11.582069,2 8.248,4.96551724 7.22565517,9.072 C6.39503448,9.38731034 5.24965517,10.3390345 5.24965517,11.6896552 C5.24965517,13.358069 6.41544828,14.8217931 7.74482759,14.8217931 L8.47972414,14.8217931 L8.32386207,12.3737931 C8.27751724,11.6482759 8.29131034,11.0193103 8.36606897,10.4521379 C8.896,6.41986207 11.9108966,3.37931034 15.3787586,3.37931034 C18.9881379,3.37931034 22.0742069,6.66896552 22.4388966,10.8852414 C22.3572414,11.1307586 22.0904828,11.5773793 21.5547586,12.0397241 C21.5754483,11.8016552 21.5864828,11.5602759 21.5864828,11.3161379 C21.5864828,7.35806897 18.7729655,4.13793103 15.3144828,4.13793103 C11.856,4.13793103 9.04248276,7.35806897 9.04248276,11.3161379 C9.04248276,13.3092414 9.75641379,15.1144828 10.9062069,16.4165517 C6.95144828,17.8231724 4,21.0882759 4,24.2413793 L4,24.9310345 L26.6289655,24.9310345 L26.6289655,24.2413793 C26.6289655,21.0882759 23.6775172,17.8231724 19.7227586,16.4165517 Z"></path>
        </g>
    </g>
</svg>