<?xml version="1.0" encoding="UTF-8"?>
<svg width="23px" height="21px" viewBox="0 0 23 21" version="1.1" xmlns="http://www.w3.org/2000/svg" xmlns:xlink="http://www.w3.org/1999/xlink">
    <!-- Generator: Sketch 48.2 (47327) - http://www.bohemiancoding.com/sketch -->
    <title>icMyProfileAppMenu</title>
    <desc>Created with Sketch.</desc>
    <defs></defs>
    <g id="Artboard" stroke="none" stroke-width="1" fill="none" fill-rule="evenodd" transform="translate(-620.000000, -314.000000)">
        <g id="icMyProfileAppMenu" transform="translate(616.000000, 311.000000)" fill="#AAC2D2">
            <path d="M5.44082759,22.4137931 C5.88468966,19.8871724 8.68055172,17.304 12.1026207,16.3437241 C12.1357241,16.3663448 12.1702069,16.3853793 12.2033103,16.4074483 C12.2675862,16.4496552 12.3321379,16.4907586 12.398069,16.5304828 C12.4449655,16.5586207 12.4918621,16.5867586 12.5390345,16.6135172 C12.6157241,16.6568276 12.6935172,16.697931 12.7715862,16.737931 C12.8055172,16.7553103 12.8388966,16.774069 12.8731034,16.7906207 C12.9815172,16.8433103 13.0913103,16.8910345 13.2027586,16.9368276 C13.2430345,16.9533793 13.2841379,16.9688276 13.3246897,16.9842759 C13.4066207,17.0157241 13.4893793,17.0452414 13.5729655,17.0731034 C13.6121379,17.086069 13.6518621,17.0993103 13.6913103,17.1114483 C13.8102069,17.1481379 13.9296552,17.1817931 14.0513103,17.2104828 C14.0571034,17.2118621 14.0634483,17.2126897 14.0692414,17.214069 C14.1870345,17.2413793 14.3062069,17.2637241 14.425931,17.2833103 C14.4631724,17.2893793 14.5009655,17.2943448 14.5384828,17.2998621 C14.6308966,17.3131034 14.7246897,17.3238621 14.8187586,17.3321379 C14.856,17.3357241 14.8935172,17.3393103 14.9307586,17.3417931 C15.0576552,17.3506207 15.1853793,17.3566897 15.3144828,17.3566897 C15.4435862,17.3566897 15.5713103,17.3506207 15.6982069,17.3417931 C15.7354483,17.3393103 15.7729655,17.3357241 15.8102069,17.3321379 C15.9042759,17.3238621 15.9977931,17.3131034 16.0904828,17.2998621 C16.128,17.2943448 16.1657931,17.2893793 16.2030345,17.2833103 C16.3227586,17.2637241 16.441931,17.2413793 16.5597241,17.214069 C16.5655172,17.2126897 16.5718621,17.2118621 16.5776552,17.2104828 C16.6993103,17.1817931 16.8187586,17.1481379 16.9376552,17.1114483 C16.9771034,17.0993103 17.0168276,17.086069 17.056,17.0731034 C17.1395862,17.0452414 17.2223448,17.0157241 17.3042759,16.9842759 C17.3448276,16.9688276 17.385931,16.9533793 17.4262069,16.9368276 C17.5376552,16.8910345 17.6474483,16.8433103 17.7558621,16.7906207 C17.790069,16.774069 17.8234483,16.7550345 17.8573793,16.737931 C17.9357241,16.697931 18.0132414,16.6568276 18.089931,16.6135172 C18.1371034,16.5867586 18.184,16.5586207 18.2308966,16.5304828 C18.2968276,16.4907586 18.3613793,16.4496552 18.4256552,16.4074483 C18.4587586,16.3853793 18.4932414,16.3663448 18.5263448,16.3437241 C21.9484138,17.304 24.7442759,19.8871724 25.1881379,22.4137931 L5.44082759,22.4137931 Z M15.3144828,4.37931034 C18.0124138,4.37931034 20.2071724,6.98096552 20.2071724,10.1782069 C20.2071724,12.1693793 19.3555862,13.9285517 18.062069,14.9732414 L18.0135172,15.0107586 C17.9382069,15.0697931 17.8598621,15.1233103 17.7817931,15.177931 C17.6902069,15.2413793 17.5969655,15.3012414 17.5028966,15.3577931 C17.4353103,15.3977931 17.3671724,15.438069 17.297931,15.4747586 C17.2375172,15.5067586 17.176,15.5365517 17.1142069,15.5657931 C17.0388966,15.6013793 16.9624828,15.6342069 16.8849655,15.6653793 C16.8303448,15.6874483 16.7762759,15.7106207 16.7211034,15.7304828 C16.5944828,15.776 16.4656552,15.8154483 16.3346207,15.8485517 C16.2924138,15.8593103 16.2496552,15.8667586 16.2068966,15.8761379 C16.102069,15.8993103 15.9966897,15.9186207 15.889931,15.9337931 C15.8452414,15.9398621 15.8005517,15.9462069 15.7558621,15.9508966 C15.609931,15.9663448 15.4634483,15.9773793 15.3144828,15.9773793 C15.1655172,15.9773793 15.0190345,15.9663448 14.8731034,15.9508966 C14.8284138,15.9462069 14.7837241,15.9398621 14.7390345,15.9337931 C14.6322759,15.9186207 14.5268966,15.8993103 14.422069,15.8761379 C14.3793103,15.8667586 14.3365517,15.8593103 14.2943448,15.8485517 C14.1633103,15.8154483 14.0344828,15.776 13.9078621,15.7304828 C13.8526897,15.7106207 13.7986207,15.6874483 13.744,15.6653793 C13.6664828,15.6342069 13.590069,15.6013793 13.5147586,15.5657931 C13.4529655,15.5365517 13.3914483,15.5067586 13.3310345,15.4747586 C13.2617931,15.438069 13.1936552,15.3977931 13.126069,15.3577931 C13.032,15.3012414 12.9387586,15.2413793 12.8471724,15.177931 C12.7691034,15.1233103 12.6907586,15.0697931 12.6154483,15.0107586 L12.5668966,14.9732414 C11.2733793,13.9285517 10.4217931,12.1693793 10.4217931,10.1782069 C10.4217931,6.98096552 12.6165517,4.37931034 15.3144828,4.37931034 Z M19.7227586,15.2786207 C20.8725517,13.9765517 21.5864828,12.1713103 21.5864828,10.1782069 C21.5864828,6.22013793 18.7729655,3 15.3144828,3 C11.856,3 9.04248276,6.22013793 9.04248276,10.1782069 C9.04248276,12.1713103 9.75641379,13.9765517 10.9062069,15.2786207 C6.95144828,16.6852414 4,19.9503448 4,23.1034483 L4,23.7931034 L26.6289655,23.7931034 L26.6289655,23.1034483 C26.6289655,19.9503448 23.6775172,16.6852414 19.7227586,15.2786207 Z"></path>
        </g>
    </g>
</svg>