<?xml version="1.0" encoding="UTF-8"?>
<svg width="20px" height="22px" viewBox="0 0 20 22" version="1.1" xmlns="http://www.w3.org/2000/svg" xmlns:xlink="http://www.w3.org/1999/xlink">
    <!-- Generator: Sketch 49 (51002) - http://www.bohemiancoding.com/sketch -->
    <title>icBrockerPhone</title>
    <desc>Created with Sketch.</desc>
    <defs></defs>
    <g id="Page-1" stroke="none" stroke-width="0" fill="none" fill-rule="evenodd">
        <g id="Artboard" transform="translate(-530.000000, -453.000000)" fill="#3498DB" fill-rule="nonzero">
            <g id="icBrockerPhone" transform="translate(528.000000, 452.000000)">
                <path d="M2.22656959,5.18719654 C3.34472464,3.7766923 4.76055195,2.40556852 6.26504462,1.25820515 C6.83472902,0.823762974 7.52861742,0.948200284 7.92208156,1.55125697 C8.6771956,2.7074044 9.32724817,3.97530841 9.90557121,5.38780601 C10.0156796,5.65659627 10.0984116,5.87298525 10.2782932,6.35486693 C10.3297025,6.49256917 10.3297025,6.49256917 10.3750732,6.61353807 C10.5552991,7.0935387 10.3921393,7.58822936 9.9703774,7.91776937 C9.36989992,8.38727824 8.89317523,8.75714527 8.43385278,9.10874238 C8.58167398,10.356489 9.04426096,11.52492 9.80993225,12.6433312 C10.6834939,13.9192891 11.7384288,14.8984763 13.000993,15.5760642 C13.4289368,15.8057252 13.8679439,15.9859736 14.3196853,16.1162761 C14.6056522,15.8357565 14.8743865,15.5747924 15.3931957,15.0725806 C15.5475144,14.9231967 15.5475144,14.9231967 15.6675214,14.8069706 C16.1308875,14.3583142 16.5959683,14.2963887 17.155617,14.6084439 C18.751093,15.4984636 20.22784,16.555645 21.5853963,17.7803004 C22.1290035,18.2707224 22.1479488,18.9964396 21.627055,19.5109962 C20.3852542,20.7388889 18.9464152,21.8158249 17.2507628,22.8250818 C16.9417145,23.0093447 16.6101563,23.0418905 16.2554912,22.9514976 C15.0391454,22.6411597 13.8497547,22.1313493 12.5801631,21.4093334 C10.3797613,20.1580126 8.43535901,18.4780112 6.68880098,16.3708986 C4.92921275,14.2473471 3.62954507,11.9594782 2.80599706,9.47184197 C2.06957707,7.24692 1.75440071,5.82663434 2.21651297,5.20034361 L2.60135064,5.48429833 L2.22656959,5.18719654 Z"></path>
            </g>
        </g>
    </g>
</svg>