<?xml version="1.0" encoding="UTF-8"?>
<svg width="21px" height="24px" viewBox="0 0 21 24" version="1.1" xmlns="http://www.w3.org/2000/svg" xmlns:xlink="http://www.w3.org/1999/xlink">
    <!-- Generator: Sketch 48.2 (47327) - http://www.bohemiancoding.com/sketch -->
    <title>icPoliciesAppMenu</title>
    <desc>Created with Sketch.</desc>
    <defs></defs>
    <g id="Artboard" stroke="none" stroke-width="1" fill="none" fill-rule="evenodd" transform="translate(-524.000000, -312.000000)">
        <g id="icPoliciesAppMenu" transform="translate(519.000000, 311.000000)" fill="#AAC2D2">
            <path d="M23.1125668,12.8554483 C22.8231875,14.7751724 22.3864979,16.4030345 21.7773944,17.8322759 C21.1873254,19.2173793 20.4789117,20.3062069 19.6127048,21.1608276 C18.5876013,22.1726897 17.4532565,22.761931 16.1456703,22.9622069 C14.2954634,23.2449655 12.698222,22.8670345 11.2656703,21.8041379 C10.4223599,21.1787586 9.70594614,20.3470345 9.07532545,19.262069 C8.386222,18.0766897 7.85546338,16.6888276 7.45215304,15.0198621 C7.16249786,13.8198621 6.95532545,12.5172414 6.81877373,11.038069 C6.72635993,10.0353103 6.67367028,8.97737931 6.65849786,7.81544828 C8.65298062,6.9737931 10.2775323,6.20413793 11.7451186,5.40606897 C12.8573944,4.80110345 14.0276013,4.12193103 15.0813944,3.25103448 C15.9815323,3.99393103 16.9470496,4.5657931 17.8063599,5.05434483 C19.468153,5.99917241 21.3304979,6.90537931 23.4899461,7.8182069 C23.4700841,9.65544828 23.3464979,11.3073103 23.1125668,12.8554483 Z M24.5360151,6.46234483 C22.2651186,5.51724138 20.3313254,4.58593103 18.6245668,3.61572414 C17.6631875,3.06868966 16.5605668,2.41241379 15.644153,1.53986207 L15.0769806,1 L14.3743599,1.66317241 C14.3009806,1.73406897 14.2284289,1.80441379 14.152291,1.87006897 C13.1771186,2.70124138 12.0389117,3.36193103 10.954222,3.952 C9.44911855,4.7702069 7.76553235,5.56137931 5.65711855,6.44082759 C5.23753235,6.61517241 4.99780821,6.97737931 5.0000151,7.43531034 C5.00773924,8.80082759 5.06346338,10.0286897 5.17049786,11.190069 C5.314222,12.750069 5.53435993,14.129931 5.84332545,15.4082759 C6.28470476,17.2355862 6.87394614,18.7682759 7.6444289,20.0937931 C8.39008407,21.3771034 9.25215304,22.3713103 10.2794634,23.1337931 C11.6907737,24.1801379 13.276153,24.7067586 15.0071875,24.7067586 C15.4604289,24.7067586 15.9233254,24.6706207 16.396153,24.5983448 C18.0375323,24.3470345 19.5106358,23.5870345 20.7754634,22.3390345 C21.7978082,21.329931 22.6237392,20.0681379 23.300153,18.4813793 C23.9647048,16.9216552 24.4389117,15.161931 24.7495323,13.1023448 C25.0129806,11.3555862 25.1431875,9.49048276 25.1478772,7.40137931 C25.1498082,6.78317241 24.7197392,6.53848276 24.5360151,6.46234483 Z M11.4703599,12.1533793 L10.1051186,13.5186207 L14.0469117,17.4604138 L20.5892565,10.9186207 L19.2237392,9.55310345 L14.0469117,14.729931 L11.4703599,12.1533793 Z"></path>
        </g>
    </g>
</svg>