<?xml version="1.0" encoding="UTF-8"?>
<svg width="30px" height="26px" viewBox="0 0 30 26" version="1.1" xmlns="http://www.w3.org/2000/svg" xmlns:xlink="http://www.w3.org/1999/xlink">
    <!-- Generator: Sketch 49 (51002) - http://www.bohemiancoding.com/sketch -->
    <title>icPoliciesAppMenuActive</title>
    <desc>Created with Sketch.</desc>
    <defs></defs>
    <g id="Symbols" stroke="none" stroke-width="1" fill="none" fill-rule="evenodd">
        <g id="icPoliciesAppMenuActive" fill="#3498DB">
            <g transform="translate(5.000000, 1.000000)" id="icPoliciesAppMenu">
                <path d="M18.1125668,11.8554483 C17.8231875,13.7751724 17.3864979,15.4030345 16.7773944,16.8322759 C16.1873254,18.2173793 15.4789117,19.3062069 14.6127048,20.1608276 C13.5876013,21.1726897 12.4532565,21.761931 11.1456703,21.9622069 C9.29546338,22.2449655 7.698222,21.8670345 6.26567028,20.8041379 C5.42235993,20.1787586 4.70594614,19.3470345 4.07532545,18.262069 C3.386222,17.0766897 2.85546338,15.6888276 2.45215304,14.0198621 C2.16249786,12.8198621 1.95532545,11.5172414 1.81877373,10.038069 C1.72635993,9.03531034 1.67367028,7.97737931 1.65849786,6.81544828 C3.65298062,5.9737931 5.27753235,5.20413793 6.74511855,4.40606897 C7.85739441,3.80110345 9.02760131,3.12193103 10.0813944,2.25103448 C10.9815323,2.99393103 11.9470496,3.5657931 12.8063599,4.05434483 C14.468153,4.99917241 16.3304979,5.90537931 18.4899461,6.8182069 C18.4700841,8.65544828 18.3464979,10.3073103 18.1125668,11.8554483 Z M19.5360151,5.46234483 C17.2651186,4.51724138 15.3313254,3.58593103 13.6245668,2.61572414 C12.6631875,2.06868966 11.5605668,1.41241379 10.644153,0.539862069 L10.0769806,0 L9.37435993,0.663172414 C9.30098062,0.734068966 9.2284289,0.804413793 9.15229097,0.870068966 C8.17711855,1.70124138 7.03891166,2.36193103 5.954222,2.952 C4.44911855,3.7702069 2.76553235,4.56137931 0.657118553,5.44082759 C0.237532346,5.61517241 -0.00219179216,5.97737931 1.51043884e-05,6.43531034 C0.00773924232,7.80082759 0.0634633803,9.02868966 0.170497863,10.190069 C0.314222001,11.750069 0.534359932,13.129931 0.843325449,14.4082759 C1.28470476,16.2355862 1.87394614,17.7682759 2.6444289,19.0937931 C3.39008407,20.3771034 4.25215304,21.3713103 5.27946338,22.1337931 C6.69077373,23.1801379 8.27615304,23.7067586 10.0071875,23.7067586 C10.4604289,23.7067586 10.9233254,23.6706207 11.396153,23.5983448 C13.0375323,23.3470345 14.5106358,22.5870345 15.7754634,21.3390345 C16.7978082,20.329931 17.6237392,19.0681379 18.300153,17.4813793 C18.9647048,15.9216552 19.4389117,14.161931 19.7495323,12.1023448 C20.0129806,10.3555862 20.1431875,8.49048276 20.1478772,6.40137931 C20.1498082,5.78317241 19.7197392,5.53848276 19.5360151,5.46234483 Z M6.47035993,11.1533793 L5.10511855,12.5186207 L9.04691166,16.4604138 L15.5892565,9.91862069 L14.2237392,8.55310345 L9.04691166,13.729931 L6.47035993,11.1533793 Z"></path>
            </g>
        </g>
    </g>
</svg>