<?xml version="1.0" encoding="UTF-8"?>
<svg width="26px" height="21px" viewBox="0 0 26 21" version="1.1" xmlns="http://www.w3.org/2000/svg" xmlns:xlink="http://www.w3.org/1999/xlink">
    <!-- Generator: Sketch 48.2 (47327) - http://www.bohemiancoding.com/sketch -->
    <title>icReclamationAppMenuActive</title>
    <desc>Created with Sketch.</desc>
    <defs></defs>
    <g id="Artboard" stroke="none" stroke-width="1" fill="none" fill-rule="evenodd" transform="translate(-661.000000, -352.000000)">
        <g id="icReclamationAppMenuActive" transform="translate(659.000000, 349.000000)" fill="#3498DB">
            <g transform="translate(2.000000, 3.000000)" id="icReclamationAppMenu">
                <path d="M5.37544828,19.0608475 L7.70593103,11.2023647 C8.40165517,8.85726127 10.6104828,7.2191923 13.0775172,7.2191923 C15.5442759,7.2191923 17.7533793,8.85726127 18.4491034,11.2023647 L20.7795862,19.0608475 L5.37544828,19.0608475 Z M24.5517241,19.0608475 L22.2182069,19.0608475 L19.7713103,10.8100889 C18.9031724,7.88346817 16.1508966,5.83988196 13.0775172,5.83988196 C10.0038621,5.83988196 7.25158621,7.88374403 6.38372414,10.8100889 L3.93682759,19.0608475 L0.689655172,19.0608475 C0.308689655,19.0608475 0,19.3695371 0,19.7505026 C0,20.1314682 0.308689655,20.4401578 0.689655172,20.4401578 L4.45158621,20.4401578 L21.7031724,20.4401578 L24.5517241,20.4401578 C24.9326897,20.4401578 25.2413793,20.1314682 25.2413793,19.7505026 C25.2413793,19.3695371 24.9326897,19.0608475 24.5517241,19.0608475 Z M9.2822069,4.37670955 C9.40110345,4.62333024 9.64717241,4.76733024 9.904,4.76733024 C10.0041379,4.76733024 10.1062069,4.74498541 10.2027586,4.69864058 C10.545931,4.5333992 10.6902069,4.12126127 10.5246897,3.77808886 L8.89351724,0.390778512 C8.72827586,0.047606098 8.31613793,-0.0972214882 7.97296552,0.0688474773 C7.6297931,0.234088857 7.48551724,0.646226788 7.65103448,0.989399201 L9.2822069,4.37670955 Z M1.22565517,8.36677851 L4.89351724,9.20429575 C4.94510345,9.21588196 4.99696552,9.22167506 5.04772414,9.22167506 C5.3622069,9.22167506 5.64634483,9.00484748 5.71944828,8.6853992 C5.80413793,8.31381299 5.57186207,7.94415782 5.20055172,7.85946817 L1.53268966,7.02195093 C1.15972414,6.9356061 0.791448276,7.17008886 0.706758621,7.54084748 C0.622344828,7.91243368 0.854344828,8.28208886 1.22565517,8.36677851 Z M15.576,4.69864058 C15.6722759,4.74498541 15.7743448,4.76733024 15.8747586,4.76733024 C16.1313103,4.76733024 16.3776552,4.62305437 16.4962759,4.37670955 L18.1277241,0.989399201 C18.2929655,0.646226788 18.1489655,0.234088857 17.8057931,0.0688474773 C17.4623448,-0.0966697641 17.0502069,0.0481578221 16.8852414,0.390778512 L15.254069,3.77808886 C15.0885517,4.12126127 15.2325517,4.5333992 15.576,4.69864058 Z M21.0068966,9.22167506 C21.0576552,9.22167506 21.1092414,9.21588196 21.1611034,9.20429575 L24.8289655,8.36677851 C25.2,8.28208886 25.4322759,7.91243368 25.3475862,7.54084748 C25.2628966,7.17008886 24.8951724,6.93643368 24.5216552,7.02195093 L20.8537931,7.85946817 C20.4827586,7.94415782 20.2504828,8.31381299 20.3351724,8.6853992 C20.408,9.00484748 20.6921379,9.22167506 21.0068966,9.22167506 Z"></path>
            </g>
        </g>
    </g>
</svg>