<?xml version="1.0" encoding="UTF-8"?>
<svg width="26px" height="21px" viewBox="0 0 26 21" version="1.1" xmlns="http://www.w3.org/2000/svg" xmlns:xlink="http://www.w3.org/1999/xlink">
    <!-- Generator: Sketch 48.2 (47327) - http://www.bohemiancoding.com/sketch -->
    <title>icReclamationAppMenu</title>
    <desc>Created with Sketch.</desc>
    <defs></defs>
    <g id="Artboard" stroke="none" stroke-width="1" fill="none" fill-rule="evenodd" transform="translate(-661.000000, -314.000000)">
        <g id="icReclamationAppMenu" transform="translate(659.000000, 311.000000)" fill="#AAC2D2">
            <path d="M7.37544828,22.0608475 L9.70593103,14.2023647 C10.4016552,11.8572613 12.6104828,10.2191923 15.0775172,10.2191923 C17.5442759,10.2191923 19.7533793,11.8572613 20.4491034,14.2023647 L22.7795862,22.0608475 L7.37544828,22.0608475 Z M26.5517241,22.0608475 L24.2182069,22.0608475 L21.7713103,13.8100889 C20.9031724,10.8834682 18.1508966,8.83988196 15.0775172,8.83988196 C12.0038621,8.83988196 9.25158621,10.883744 8.38372414,13.8100889 L5.93682759,22.0608475 L2.68965517,22.0608475 C2.30868966,22.0608475 2,22.3695371 2,22.7505026 C2,23.1314682 2.30868966,23.4401578 2.68965517,23.4401578 L6.45158621,23.4401578 L23.7031724,23.4401578 L26.5517241,23.4401578 C26.9326897,23.4401578 27.2413793,23.1314682 27.2413793,22.7505026 C27.2413793,22.3695371 26.9326897,22.0608475 26.5517241,22.0608475 Z M11.2822069,7.37670955 C11.4011034,7.62333024 11.6471724,7.76733024 11.904,7.76733024 C12.0041379,7.76733024 12.1062069,7.74498541 12.2027586,7.69864058 C12.545931,7.5333992 12.6902069,7.12126127 12.5246897,6.77808886 L10.8935172,3.39077851 C10.7282759,3.0476061 10.3161379,2.90277851 9.97296552,3.06884748 C9.6297931,3.23408886 9.48551724,3.64622679 9.65103448,3.9893992 L11.2822069,7.37670955 Z M3.22565517,11.3667785 L6.89351724,12.2042958 C6.94510345,12.215882 6.99696552,12.2216751 7.04772414,12.2216751 C7.3622069,12.2216751 7.64634483,12.0048475 7.71944828,11.6853992 C7.80413793,11.313813 7.57186207,10.9441578 7.20055172,10.8594682 L3.53268966,10.0219509 C3.15972414,9.9356061 2.79144828,10.1700889 2.70675862,10.5408475 C2.62234483,10.9124337 2.85434483,11.2820889 3.22565517,11.3667785 Z M17.576,7.69864058 C17.6722759,7.74498541 17.7743448,7.76733024 17.8747586,7.76733024 C18.1313103,7.76733024 18.3776552,7.62305437 18.4962759,7.37670955 L20.1277241,3.9893992 C20.2929655,3.64622679 20.1489655,3.23408886 19.8057931,3.06884748 C19.4623448,2.90333024 19.0502069,3.04815782 18.8852414,3.39077851 L17.254069,6.77808886 C17.0885517,7.12126127 17.2325517,7.5333992 17.576,7.69864058 Z M23.0068966,12.2216751 C23.0576552,12.2216751 23.1092414,12.215882 23.1611034,12.2042958 L26.8289655,11.3667785 C27.2,11.2820889 27.4322759,10.9124337 27.3475862,10.5408475 C27.2628966,10.1700889 26.8951724,9.93643368 26.5216552,10.0219509 L22.8537931,10.8594682 C22.4827586,10.9441578 22.2504828,11.313813 22.3351724,11.6853992 C22.408,12.0048475 22.6921379,12.2216751 23.0068966,12.2216751 Z"></path>
        </g>
    </g>
</svg>